<?xml version="1.0" encoding="UTF-8"?>
<!DOCTYPE svg PUBLIC "-//W3C//DTD SVG 1.1//EN" "http://www.w3.org/Graphics/SVG/1.1/DTD/svg11.dtd">
<!-- Creator: CorelDRAW -->
<svg xmlns="http://www.w3.org/2000/svg" xml:space="preserve" width="6.72in" height="6.72in" style="shape-rendering:geometricPrecision; text-rendering:geometricPrecision; image-rendering:optimizeQuality; fill-rule:evenodd; clip-rule:evenodd"
viewBox="0 0 6.72 6.72"
 xmlns:xlink="http://www.w3.org/1999/xlink">
 <defs>
  <style type="text/css">
   <![CDATA[
    .fil1 {fill:white;fill-rule:nonzero}
    .fil0 {fill:url(#id0)}
   ]]>
  </style>
  <linearGradient id="id0" gradientUnits="userSpaceOnUse" x1="1.38953" y1="-0.0529488" x2="5.33047" y2="6.77295">
   <stop offset="0" style="stop-color:#444FF5"/>
   <stop offset="0.490196" style="stop-color:#21BFDB"/>
   <stop offset="1" style="stop-color:#1DABB6"/>
  </linearGradient>
 </defs>
 <g id="Layer_x0020_1">
  <metadata id="CorelCorpID_0Corel-Layer"/>
  <path class="fil0" d="M6.31603 1.65333c0.942567,1.63257 0.383209,3.72013 -1.24937,4.6627 -1.63257,0.942567 -3.72013,0.383209 -4.6627,-1.24937 -0.942567,-1.63257 -0.383209,-3.72013 1.24937,-4.6627 1.63257,-0.942567 3.72013,-0.383209 4.6627,1.24937z"/>
  <path class="fil1" d="M2.06364 1.19333l2.59272 0c0.107524,0 0.205232,0.0439449 0.27602,0.114728 0.0707835,0.0707874 0.114728,0.168496 0.114728,0.27602l0 3.55184c0,0.107524 -0.0439449,0.205232 -0.114728,0.27602 -0.0707874,0.0707835 -0.168496,0.114728 -0.27602,0.114728l-2.59272 0c-0.107524,0 -0.205232,-0.0439449 -0.27602,-0.114728 -0.0707835,-0.0707874 -0.114728,-0.168496 -0.114728,-0.27602l0 -3.55184c0,-0.107524 0.0439449,-0.205232 0.114728,-0.27602 0.0707874,-0.0707835 0.168496,-0.114728 0.27602,-0.114728zm2.59272 0.135417l-2.59272 0c-0.0701417,0 -0.133965,0.028752 -0.180276,0.0750551 -0.0463071,0.046311 -0.0750551,0.110134 -0.0750551,0.180276l0 3.55184c0,0.0701417 0.028748,0.133965 0.0750551,0.180276 0.046311,0.0463031 0.110134,0.0750551 0.180276,0.0750551l2.59272 0c0.0701417,0 0.133965,-0.028752 0.180276,-0.0750551 0.0463071,-0.046311 0.0750551,-0.110134 0.0750551,-0.180276l0 -3.55184c0,-0.0701417 -0.028748,-0.133965 -0.0750551,-0.180276 -0.046311,-0.0463031 -0.110134,-0.0750551 -0.180276,-0.0750551z"/>
  <path class="fil1" d="M2.40014 1.53679l1.91972 0c0.107524,0 0.205228,0.043937 0.276016,0.114728 0.0707874,0.0707835 0.114728,0.168496 0.114728,0.27602l0 0.259504c0,0.107524 -0.043937,0.205228 -0.114728,0.276016 -0.0707835,0.0707874 -0.168492,0.114728 -0.276016,0.114728l-1.91972 0c-0.107524,0 -0.205232,-0.0439409 -0.276016,-0.114728 -0.0707913,-0.0707874 -0.114728,-0.168492 -0.114728,-0.276016l0 -0.259504c0,-0.107524 0.0439409,-0.205236 0.114728,-0.27602 0.0707874,-0.0707913 0.168492,-0.114728 0.276016,-0.114728zm1.91972 0.135417l-1.91972 0c-0.0701417,0 -0.133965,0.028748 -0.180272,0.0750551 -0.046311,0.0463071 -0.0750551,0.11013 -0.0750551,0.180276l0 0.259504c0,0.0701417 0.0287441,0.133965 0.0750551,0.180272 0.0463071,0.0463071 0.11013,0.0750551 0.180272,0.0750551l1.91972 0c0.0701417,0 0.133965,-0.028748 0.180272,-0.0750551 0.046311,-0.0463071 0.0750551,-0.11013 0.0750551,-0.180272l0 -0.259504c0,-0.0701457 -0.0287441,-0.133969 -0.0750551,-0.180276 -0.0463071,-0.0463071 -0.11013,-0.0750551 -0.180272,-0.0750551z"/>
  <path class="fil1" d="M2.25448 2.93501c0.0676732,0 0.128949,0.027437 0.173299,0.0717913 0.0443543,0.0443504 0.0717913,0.10563 0.0717913,0.173299 0,0.0676732 -0.027437,0.128949 -0.0717913,0.173299 -0.0443504,0.0443543 -0.105626,0.0717913 -0.173299,0.0717913 -0.0676693,0 -0.128945,-0.027437 -0.173299,-0.0717913 -0.0443504,-0.0443504 -0.0717835,-0.105626 -0.0717835,-0.173299 0,-0.0676693 0.0274331,-0.128949 0.0717874,-0.173299 0.0443504,-0.0443543 0.105622,-0.0717913 0.173295,-0.0717913zm0.0775551 0.167535c-0.0198386,-0.0198386 -0.0472598,-0.0321181 -0.0775551,-0.0321181 -0.0302874,0 -0.0577087,0.0122756 -0.0775512,0.0321181 -0.0198425,0.0198386 -0.0321181,0.0472677 -0.0321181,0.0775551 0,0.0302913 0.0122756,0.0577165 0.0321181,0.0775551 0.0198425,0.0198425 0.0472638,0.0321181 0.0775512,0.0321181 0.0302953,0 0.0577165,-0.0122795 0.0775551,-0.0321181 0.0198425,-0.0198386 0.0321181,-0.0472638 0.0321181,-0.0775551 0,-0.0302874 -0.0122756,-0.0577165 -0.0321181,-0.0775551z"/>
  <path class="fil1" d="M3.36 2.93501c0.0676732,0 0.128949,0.027437 0.173299,0.0717913 0.0443543,0.0443504 0.0717913,0.10563 0.0717913,0.173299 0,0.0676732 -0.027437,0.128949 -0.0717913,0.173299 -0.0443504,0.0443543 -0.105622,0.0717913 -0.173299,0.0717913 -0.0676732,0 -0.128945,-0.027437 -0.173299,-0.0717913 -0.0443504,-0.0443504 -0.0717874,-0.105626 -0.0717874,-0.173299 0,-0.0676693 0.027437,-0.128949 0.0717913,-0.173299 0.0443504,-0.0443543 0.105622,-0.0717913 0.173295,-0.0717913zm0.0775551 0.167535c-0.0198386,-0.0198425 -0.0472677,-0.0321181 -0.0775551,-0.0321181 -0.0302874,0 -0.0577126,0.0122756 -0.0775512,0.0321181 -0.0198425,0.0198386 -0.0321181,0.0472677 -0.0321181,0.0775551 0,0.0302913 0.0122756,0.0577165 0.0321142,0.0775551 0.0198425,0.0198425 0.0472677,0.0321181 0.0775551,0.0321181 0.0302913,0 0.0577165,-0.0122756 0.0775551,-0.0321181 0.0198386,-0.0198386 0.0321181,-0.0472638 0.0321181,-0.0775551 0,-0.0302874 -0.0122756,-0.0577165 -0.0321181,-0.0775551z"/>
  <path class="fil1" d="M4.46552 2.93501c0.0676772,0 0.128949,0.027437 0.173299,0.0717913 0.0443504,0.0443504 0.0717874,0.10563 0.0717874,0.173299 0,0.0676732 -0.027437,0.128949 -0.0717874,0.173299 -0.0443504,0.0443543 -0.105626,0.0717913 -0.173299,0.0717913 -0.0676693,0 -0.128949,-0.027437 -0.173299,-0.0717913 -0.0443504,-0.0443504 -0.0717874,-0.105626 -0.0717874,-0.173299 0,-0.0676693 0.027437,-0.128949 0.0717874,-0.173299 0.0443504,-0.0443543 0.10563,-0.0717913 0.173299,-0.0717913zm0.0775512 0.167535c-0.0198386,-0.0198425 -0.0472598,-0.0321181 -0.0775512,-0.0321181 -0.0302913,0 -0.0577126,0.0122795 -0.0775512,0.0321181 -0.0198465,0.0198386 -0.0321181,0.0472677 -0.0321181,0.0775551 0,0.0302913 0.0122756,0.0577165 0.0321181,0.0775551 0.0198386,0.0198386 0.0472598,0.0321181 0.0775512,0.0321181 0.0302913,0 0.0577126,-0.0122756 0.0775551,-0.0321181 0.0198386,-0.0198386 0.0321142,-0.0472638 0.0321142,-0.0775551 0,-0.0302874 -0.0122756,-0.0577165 -0.0321181,-0.0775551z"/>
  <path class="fil1" d="M2.25448 3.73943c0.0676732,0 0.128949,0.027437 0.173299,0.0717913 0.0443543,0.0443504 0.0717913,0.105626 0.0717913,0.173299 0,0.0676732 -0.027437,0.128945 -0.0717913,0.173299 -0.0443504,0.0443504 -0.105626,0.0717874 -0.173299,0.0717874 -0.0676654,0 -0.128945,-0.027437 -0.173299,-0.0717874 -0.0443504,-0.0443543 -0.0717835,-0.10563 -0.0717835,-0.173299 0,-0.0676732 0.0274331,-0.128949 0.0717835,-0.173299 0.0443543,-0.0443543 0.10563,-0.0717913 0.173299,-0.0717913zm0.0775551 0.167535c-0.0198386,-0.0198386 -0.0472598,-0.0321181 -0.0775551,-0.0321181 -0.0302874,0 -0.0577087,0.0122756 -0.0775512,0.0321181 -0.0198425,0.0198386 -0.0321181,0.0472677 -0.0321181,0.0775551 0,0.0302874 0.0122756,0.0577126 0.0321181,0.0775551 0.0198425,0.0198386 0.0472638,0.0321142 0.0775512,0.0321142 0.0302913,0 0.0577165,-0.0122756 0.0775551,-0.0321142 0.0198425,-0.0198425 0.0321181,-0.0472677 0.0321181,-0.0775551 0,-0.0302913 -0.0122756,-0.0577165 -0.0321181,-0.0775551z"/>
  <path class="fil1" d="M3.36 3.73943c0.0676772,0 0.128949,0.027437 0.173299,0.0717913 0.0443543,0.0443504 0.0717913,0.105626 0.0717913,0.173299 0,0.0676732 -0.027437,0.128945 -0.0717913,0.173299 -0.0443504,0.0443504 -0.105626,0.0717874 -0.173299,0.0717874 -0.0676693,0 -0.128945,-0.027437 -0.173299,-0.0717874 -0.0443504,-0.0443543 -0.0717874,-0.10563 -0.0717874,-0.173299 0,-0.0676732 0.027437,-0.128949 0.0717874,-0.173299 0.0443543,-0.0443543 0.105626,-0.0717913 0.173299,-0.0717913zm0.0775551 0.167535c-0.0198386,-0.0198425 -0.0472638,-0.0321181 -0.0775551,-0.0321181 -0.0302874,0 -0.0577126,0.0122756 -0.0775551,0.0321181 -0.0198386,0.0198386 -0.0321142,0.0472677 -0.0321142,0.0775551 0,0.0302874 0.0122756,0.0577126 0.0321142,0.0775551 0.0198425,0.0198386 0.0472677,0.0321142 0.0775551,0.0321142 0.0302874,0 0.0577165,-0.0122756 0.0775551,-0.0321142 0.0198425,-0.0198425 0.0321181,-0.0472677 0.0321181,-0.0775551 0,-0.0302913 -0.0122795,-0.0577165 -0.0321181,-0.0775551z"/>
  <path class="fil1" d="M4.46552 3.73943c0.0676732,0 0.128949,0.027437 0.173299,0.0717913 0.0443504,0.0443504 0.0717874,0.105626 0.0717874,0.173299 0,0.0676693 -0.027437,0.128945 -0.0717874,0.173299 -0.0443504,0.0443504 -0.10563,0.0717874 -0.173299,0.0717874 -0.0676693,0 -0.128949,-0.027437 -0.173299,-0.0717874 -0.0443504,-0.0443543 -0.0717874,-0.105626 -0.0717874,-0.173299 0,-0.0676732 0.027437,-0.128949 0.0717874,-0.173299 0.0443504,-0.0443543 0.10563,-0.0717913 0.173299,-0.0717913zm0.0775551 0.167535c-0.0198425,-0.0198425 -0.0472638,-0.0321181 -0.0775551,-0.0321181 -0.0302913,0 -0.0577126,0.0122795 -0.0775512,0.0321181 -0.0198425,0.0198386 -0.0321181,0.0472638 -0.0321181,0.0775551 0,0.0302874 0.0122717,0.0577126 0.0321181,0.0775551 0.0198386,0.0198386 0.0472638,0.0321142 0.0775512,0.0321142 0.0302913,0 0.0577126,-0.0122756 0.0775551,-0.0321142 0.0198386,-0.0198425 0.0321142,-0.0472677 0.0321142,-0.0775551 0,-0.0302874 -0.0122756,-0.0577165 -0.0321142,-0.0775551z"/>
  <path class="fil1" d="M2.25448 4.54384c0.0676732,0 0.128949,0.027437 0.173299,0.0717913 0.0443543,0.0443504 0.0717913,0.105626 0.0717913,0.173299 0,0.0676772 -0.027437,0.128949 -0.0717913,0.173299 -0.0443504,0.0443543 -0.105626,0.0717913 -0.173299,0.0717913 -0.0676693,0 -0.128945,-0.027437 -0.173299,-0.0717913 -0.0443504,-0.0443504 -0.0717835,-0.105626 -0.0717835,-0.173299 0,-0.0676732 0.0274331,-0.128949 0.0717835,-0.173299 0.0443543,-0.0443543 0.10563,-0.0717913 0.173299,-0.0717913zm0.0775551 0.167535c-0.0198386,-0.0198386 -0.0472598,-0.0321181 -0.0775551,-0.0321181 -0.0302874,0 -0.0577087,0.0122756 -0.0775512,0.0321181 -0.0198425,0.0198386 -0.0321181,0.0472677 -0.0321181,0.0775551 0,0.0302874 0.0122756,0.0577165 0.0321181,0.0775551 0.0198425,0.0198425 0.0472638,0.0321181 0.0775512,0.0321181 0.0302953,0 0.0577165,-0.0122795 0.0775551,-0.0321181 0.0198425,-0.0198386 0.0321181,-0.0472638 0.0321181,-0.0775551 0,-0.0302913 -0.0122756,-0.0577165 -0.0321181,-0.0775551z"/>
  <path class="fil1" d="M3.36 4.54384c0.0676772,0 0.128949,0.027437 0.173299,0.0717913 0.0443543,0.0443504 0.0717913,0.105626 0.0717913,0.173299 0,0.0676772 -0.027437,0.128949 -0.0717913,0.173299 -0.0443504,0.0443543 -0.105622,0.0717913 -0.173299,0.0717913 -0.0676732,0 -0.128945,-0.027437 -0.173299,-0.0717913 -0.0443504,-0.0443504 -0.0717874,-0.105626 -0.0717874,-0.173299 0,-0.0676732 0.027437,-0.128949 0.0717874,-0.173299 0.0443543,-0.0443543 0.105626,-0.0717913 0.173299,-0.0717913zm0.0775551 0.167535c-0.0198386,-0.0198425 -0.0472638,-0.0321181 -0.0775551,-0.0321181 -0.0302874,0 -0.0577126,0.0122756 -0.0775551,0.0321181 -0.0198386,0.0198386 -0.0321142,0.0472677 -0.0321142,0.0775551 0,0.0302874 0.0122756,0.0577165 0.0321142,0.0775551 0.0198425,0.0198425 0.0472677,0.0321181 0.0775551,0.0321181 0.0302913,0 0.0577165,-0.0122756 0.0775551,-0.0321181 0.0198425,-0.0198386 0.0321181,-0.0472638 0.0321181,-0.0775551 0,-0.0302913 -0.0122795,-0.0577165 -0.0321181,-0.0775551z"/>
  <path class="fil1" d="M4.46552 4.54384c0.0676732,0 0.128949,0.027437 0.173299,0.0717913 0.0443504,0.0443504 0.0717874,0.105626 0.0717874,0.173299 0,0.0676732 -0.027437,0.128949 -0.0717874,0.173299 -0.0443504,0.0443543 -0.105626,0.0717913 -0.173299,0.0717913 -0.0676693,0 -0.128949,-0.027437 -0.173299,-0.0717913 -0.0443504,-0.0443504 -0.0717874,-0.105622 -0.0717874,-0.173299 0,-0.0676732 0.027437,-0.128949 0.0717874,-0.173299 0.0443504,-0.0443543 0.10563,-0.0717913 0.173299,-0.0717913zm0.0775551 0.167535c-0.0198425,-0.0198425 -0.0472638,-0.0321181 -0.0775551,-0.0321181 -0.0302913,0 -0.0577126,0.0122795 -0.0775512,0.0321181 -0.0198425,0.0198386 -0.0321181,0.0472638 -0.0321181,0.0775551 0,0.0302913 0.0122717,0.0577165 0.0321181,0.0775551 0.0198386,0.0198386 0.0472598,0.0321181 0.0775512,0.0321181 0.0302913,0 0.0577126,-0.0122756 0.0775551,-0.0321181 0.0198386,-0.0198386 0.0321142,-0.0472677 0.0321142,-0.0775551 0,-0.0302874 -0.0122756,-0.0577165 -0.0321142,-0.0775551z"/>
  <path class="fil1" d="M4.32852 1.80903c0.0472047,0 0.0839961,0.0168701 0.110488,0.0504882 0.0315827,0.0397362 0.0474331,0.105736 0.0474331,0.198 0,0.0919252 -0.0159606,0.158035 -0.0477756,0.198335 -0.0262598,0.0331732 -0.0629409,0.0496969 -0.110146,0.0496969 -0.0472126,0 -0.0853583,-0.0181102 -0.114339,-0.054563 -0.0289843,-0.0363386 -0.0434724,-0.101209 -0.0434724,-0.194488 0,-0.0915866 0.0159606,-0.157469 0.0477717,-0.197657 0.0262638,-0.0331693 0.0629409,-0.049811 0.110039,-0.049811zm0 0.0773189c-0.0112126,0 -0.0212835,0.00362205 -0.0301142,0.0107559 -0.00883071,0.00724409 -0.0157362,0.0201496 -0.0206063,0.0387165 -0.00633858,0.0241102 -0.00962205,0.0646378 -0.00962205,0.121697 0,0.0570551 0.00294488,0.0962244 0.00860236,0.117508 0.00577559,0.0213937 0.0130236,0.0355472 0.0217402,0.0426772 0.00883071,0.00701969 0.0187874,0.0106417 0.03,0.0106417 0.0113189,0 0.0213937,-0.00362205 0.0302244,-0.0108661 0.00883071,-0.00713386 0.0157323,-0.0200394 0.0206024,-0.0386024 0.00633858,-0.0238898 0.00962205,-0.0643031 0.00962205,-0.121358 0,-0.0570591 -0.00294094,-0.0962283 -0.00860236,-0.117622 -0.00577559,-0.0212835 -0.0130197,-0.0355472 -0.0217362,-0.0427913 -0.00883071,-0.00713386 -0.0187913,-0.0107559 -0.0301102,-0.0107559z"/>
 </g>
</svg>
